<svg width="26" height="33" viewBox="0 0 26 33" fill="none" xmlns="http://www.w3.org/2000/svg">
<path d="M22.7153 28.3549V12.799C22.1642 13.253 21.4585 13.6663 20.6109 14.0239C19.9011 14.3239 19.1125 14.5777 18.267 14.7819V21.0611C18.267 21.6271 18.0437 22.1598 17.6386 22.5622C17.2382 22.9592 16.7048 23.1845 16.1354 23.1954C15.5382 23.2062 14.977 22.9857 14.5543 22.5711C14.143 22.168 13.9164 21.6312 13.9164 21.0605V20.0086C13.9164 19.8993 13.8628 19.8233 13.8186 19.7792C13.7481 19.7093 13.6524 19.6707 13.5492 19.6707H13.5465C13.345 19.672 13.1814 19.824 13.1814 20.0093V24.0016C13.1814 24.4881 12.9901 24.9469 12.6433 25.2936C12.2884 25.6486 11.814 25.8433 11.3078 25.8433H11.3057C10.2736 25.842 9.43412 25.0161 9.43412 24.0016V18.5951C9.43412 18.4573 9.30994 18.3446 9.15657 18.3446C9.0032 18.3446 8.87902 18.4566 8.87902 18.5951V19.9801C8.87902 20.5318 8.66186 21.0523 8.26759 21.4452C7.86245 21.8483 7.32092 22.0702 6.74546 22.0675C5.57756 22.0634 4.62683 21.127 4.6275 19.9801V13.7878C4.00929 13.4878 3.47997 13.156 3.04565 12.7983V28.3542C3.04565 28.7607 3.25467 29.1753 3.66659 29.5872C4.12601 30.046 4.82973 30.4837 5.70107 30.8515C7.60729 31.657 10.1568 32.1001 12.8801 32.1001C15.6034 32.1001 18.1536 31.657 20.0592 30.8515C20.9305 30.4837 21.6342 30.046 22.0937 29.5872C22.5056 29.176 22.7146 28.7607 22.7146 28.3542L22.7153 28.3549Z" fill="white"/>
<path d="M15.545 21.5611C15.6937 21.707 15.8925 21.7844 16.1069 21.781C16.5168 21.7729 16.8507 21.4505 16.8507 21.0617V15.0688C15.5993 15.2765 14.2584 15.3851 12.8801 15.3851C10.3713 15.3851 7.98461 15.0254 6.04309 14.3638V19.9813C6.04241 20.3505 6.35933 20.6518 6.75021 20.6532H6.75292C6.94972 20.6532 7.13227 20.5785 7.26799 20.4435C7.39353 20.3179 7.46275 20.1537 7.46275 19.9813V18.5963C7.46275 17.6774 8.22212 16.9303 9.15521 16.9303C10.0883 16.9303 10.8477 17.6774 10.8477 18.5963V24.0028C10.8477 24.2376 11.0526 24.429 11.3051 24.429C11.4333 24.429 11.5528 24.3808 11.6403 24.2932C11.7197 24.2138 11.7631 24.1107 11.7631 24.0028V20.0105C11.7631 19.0503 12.5578 18.2638 13.5336 18.257C13.5377 18.257 13.5424 18.257 13.5465 18.257C14.0263 18.257 14.4755 18.4416 14.8135 18.7768C15.146 19.1073 15.3299 19.5457 15.3299 20.0112V21.063C15.3299 21.2503 15.4059 21.4281 15.543 21.5625L15.545 21.5611Z" fill="white"/>
<path d="M20.0598 7.7257C18.1536 6.92018 15.604 6.47705 12.8807 6.47705C10.1575 6.47705 7.60723 6.92018 5.70168 7.7257C4.83034 8.09351 4.12662 8.53121 3.6672 8.98996C3.25528 9.4012 3.04626 9.81651 3.04626 10.223C3.04626 10.6295 3.25528 11.0441 3.6672 11.456C4.12662 11.9148 4.83034 12.3525 5.70168 12.7203C7.6079 13.5258 10.1575 13.9689 12.8807 13.9689C14.4673 13.9689 15.9942 13.8183 17.3698 13.5333C17.3996 13.5251 17.4295 13.519 17.4607 13.5143C18.4114 13.312 19.2889 13.046 20.0598 12.7196C20.9311 12.3518 21.6348 11.9141 22.0943 11.4554C22.5062 11.0441 22.7152 10.6288 22.7152 10.2223C22.7152 9.81583 22.5062 9.4012 22.0943 8.98928C21.6348 8.52986 20.9311 8.09283 20.0598 7.72502V7.7257Z" fill="white"/>
<path d="M22.7186 14.995C22.3549 14.995 22.0597 14.7011 22.0583 14.3367C22.057 13.9716 22.3515 13.6751 22.7166 13.6737L24.3995 13.6676V12.6069C24.3995 6.43902 19.2319 1.42068 12.8801 1.42068C6.52826 1.42068 1.36062 6.43902 1.36062 12.6069V13.6717L3.03883 13.6656H3.04154C3.40528 13.6656 3.70048 13.9594 3.70184 14.3238C3.70319 14.6889 3.40867 14.9855 3.04358 14.9868L0.702364 14.995C0.526603 14.995 0.358308 14.9264 0.234122 14.8023C0.109935 14.6781 0.0400391 14.5098 0.0400391 14.3347V12.6076C0.0400391 10.9172 0.380703 9.27699 1.05185 7.73314C1.69993 6.2429 2.62691 4.90536 3.80702 3.75714C4.98645 2.61029 6.35929 1.70977 7.88752 1.08069C9.46937 0.429903 11.1489 0.100098 12.8794 0.100098C14.6099 0.100098 16.2901 0.429903 17.8713 1.08069C19.3995 1.70977 20.773 2.61029 21.9518 3.75714C23.1326 4.90536 24.0596 6.2429 24.707 7.73314C25.3781 9.27699 25.7188 10.9172 25.7188 12.6076V14.3265C25.7188 14.6903 25.4243 14.9855 25.0605 14.9868L22.7193 14.995H22.7166H22.7186Z" fill="white"/>
</svg>
