<svg width="180" height="180" viewBox="0 0 180 180" fill="none" xmlns="http://www.w3.org/2000/svg">
<rect width="180" height="180" fill="white"/>
<mask id="mask0_610_81" style="mask-type:alpha" maskUnits="userSpaceOnUse" x="0" y="0" width="180" height="180">
<rect width="180" height="180" fill="#F29393"/>
</mask>
<g mask="url(#mask0_610_81)">
<line x1="160.5" y1="-20" x2="160.5" y2="160" stroke="black"/>
<line x1="110.5" y1="-20" x2="110.5" y2="160" stroke="black"/>
<line x1="60.5" y1="-20" x2="60.5" y2="160" stroke="black"/>
<line x1="11" y1="-20" x2="11" y2="160" stroke="black" stroke-width="2"/>
<line x1="-20" y1="159.5" x2="160" y2="159.5" stroke="black"/>
<line x1="-20" y1="109.5" x2="160" y2="109.5" stroke="black"/>
<line x1="-20" y1="59.5" x2="160" y2="59.5" stroke="black"/>
<line x1="-20" y1="9" x2="160" y2="9" stroke="black" stroke-width="2"/>
<path d="M28.418 23.7754C28.1979 23.2337 28.401 22.8444 29.0273 22.6074C30.3307 22.1165 31.5664 21.3294 32.7344 20.2461C33.9023 19.1628 34.8249 18.1979 35.502 17.3516C35.9928 16.7422 36.4668 16.4375 36.9238 16.4375H39.082C39.8607 16.4375 40.25 16.8184 40.25 17.5801V51.8574C40.25 52.6191 39.8691 53 39.1074 53H36.9238C36.1621 53 35.7812 52.6191 35.7812 51.8574V24.0293C35.7812 23.5215 35.7982 23.0137 35.832 22.5059H35.7812C35.2565 23.166 34.4863 23.8431 33.4707 24.5371C32.4551 25.2311 31.5241 25.7389 30.6777 26.0605C29.9329 26.3483 29.4421 26.2129 29.2051 25.6543L28.418 23.7754Z" fill="black"/>
<path d="M132.047 88.8062C131.862 88.562 131.84 88.3765 131.981 88.2495L132.436 87.8467C132.602 87.7002 132.794 87.7612 133.014 88.0298C133.146 88.1909 133.378 88.4131 133.71 88.6963C134.042 88.9795 134.474 89.1211 135.006 89.1211C135.705 89.1211 136.229 88.9062 136.581 88.4766C136.938 88.0469 137.116 87.478 137.116 86.77C137.116 86.1011 136.964 85.5737 136.662 85.188C136.359 84.8022 135.905 84.6094 135.299 84.6094C134.923 84.6094 134.611 84.646 134.362 84.7192C134.113 84.7925 133.854 84.9463 133.585 85.1807C133.4 85.3418 133.205 85.4224 133 85.4224H132.655C132.436 85.4224 132.326 85.3125 132.326 85.0928V79.9146C132.326 79.6948 132.436 79.585 132.655 79.585H137.709C137.929 79.585 138.039 79.6948 138.039 79.9146V80.4565C138.039 80.6763 137.929 80.7861 137.709 80.7861H133.615V83.6792C133.615 83.8257 133.61 83.9722 133.6 84.1187H133.629C133.903 83.8892 134.223 83.7305 134.589 83.6426C134.955 83.5547 135.294 83.5107 135.607 83.5107C136.515 83.5107 137.233 83.8135 137.76 84.4189C138.288 85.0244 138.551 85.8179 138.551 86.7993C138.551 87.8687 138.234 88.7061 137.599 89.3115C136.969 89.917 136.11 90.2197 135.021 90.2197C134.225 90.2197 133.583 90.0562 133.095 89.729C132.611 89.397 132.262 89.0894 132.047 88.8062Z" fill="black"/>
<path d="M132.047 138.806C131.862 138.562 131.84 138.376 131.981 138.25L132.436 137.847C132.602 137.7 132.794 137.761 133.014 138.03C133.146 138.191 133.378 138.413 133.71 138.696C134.042 138.979 134.474 139.121 135.006 139.121C135.705 139.121 136.229 138.906 136.581 138.477C136.938 138.047 137.116 137.478 137.116 136.77C137.116 136.101 136.964 135.574 136.662 135.188C136.359 134.802 135.905 134.609 135.299 134.609C134.923 134.609 134.611 134.646 134.362 134.719C134.113 134.792 133.854 134.946 133.585 135.181C133.4 135.342 133.205 135.422 133 135.422H132.655C132.436 135.422 132.326 135.312 132.326 135.093V129.915C132.326 129.695 132.436 129.585 132.655 129.585H137.709C137.929 129.585 138.039 129.695 138.039 129.915V130.457C138.039 130.676 137.929 130.786 137.709 130.786H133.615V133.679C133.615 133.826 133.61 133.972 133.6 134.119H133.629C133.903 133.889 134.223 133.73 134.589 133.643C134.955 133.555 135.294 133.511 135.607 133.511C136.515 133.511 137.233 133.813 137.76 134.419C138.288 135.024 138.551 135.818 138.551 136.799C138.551 137.869 138.234 138.706 137.599 139.312C136.969 139.917 136.11 140.22 135.021 140.22C134.225 140.22 133.583 140.056 133.095 139.729C132.611 139.397 132.262 139.089 132.047 138.806Z" fill="black"/>
<path d="M132.099 76C131.83 76 131.696 75.8901 131.696 75.6704V75.3188C131.696 75.1284 131.776 74.9526 131.938 74.7915L134.809 71.8984C135.658 71.0439 136.215 70.3848 136.479 69.9209C136.747 69.4521 136.881 68.9126 136.881 68.3022C136.881 67.7896 136.73 67.355 136.427 66.9985C136.129 66.6421 135.675 66.4639 135.065 66.4639C134.518 66.4639 134.064 66.603 133.703 66.8813C133.341 67.1597 133.08 67.626 132.919 68.2803C132.851 68.5586 132.707 68.666 132.487 68.6025L131.916 68.4341C131.764 68.3901 131.728 68.1826 131.806 67.8115C131.947 67.1719 132.289 66.6055 132.831 66.1123C133.378 65.6143 134.103 65.3652 135.006 65.3652C136.154 65.3652 136.991 65.6533 137.519 66.2295C138.051 66.8057 138.317 67.5112 138.317 68.3462C138.317 69.1616 138.097 69.8647 137.658 70.4556C137.223 71.0464 136.625 71.7104 135.863 72.4478L133.454 74.7842V74.8135C133.585 74.8037 133.781 74.7988 134.04 74.7988H138.031C138.3 74.7988 138.434 74.9087 138.434 75.1284V75.6704C138.434 75.8901 138.3 76 138.031 76H132.099Z" fill="black"/>
<path d="M132.099 126C131.83 126 131.696 125.89 131.696 125.67V125.319C131.696 125.128 131.776 124.953 131.938 124.792L134.809 121.898C135.658 121.044 136.215 120.385 136.479 119.921C136.747 119.452 136.881 118.913 136.881 118.302C136.881 117.79 136.73 117.355 136.427 116.999C136.129 116.642 135.675 116.464 135.065 116.464C134.518 116.464 134.064 116.603 133.703 116.881C133.341 117.16 133.08 117.626 132.919 118.28C132.851 118.559 132.707 118.666 132.487 118.603L131.916 118.434C131.764 118.39 131.728 118.183 131.806 117.812C131.947 117.172 132.289 116.605 132.831 116.112C133.378 115.614 134.103 115.365 135.006 115.365C136.154 115.365 136.991 115.653 137.519 116.229C138.051 116.806 138.317 117.511 138.317 118.346C138.317 119.162 138.097 119.865 137.658 120.456C137.223 121.046 136.625 121.71 135.863 122.448L133.454 124.784V124.813C133.585 124.804 133.781 124.799 134.04 124.799H138.031C138.3 124.799 138.434 124.909 138.434 125.128V125.67C138.434 125.89 138.3 126 138.031 126H132.099Z" fill="black"/>
<path d="M75.377 71.0586C74.6152 71.0586 74.2344 70.6777 74.2344 69.916V68.0371C74.2344 67.2754 74.6152 66.8945 75.377 66.8945H96.5527C97.3145 66.8945 97.6953 67.2754 97.6953 68.0371V69.7891C97.6953 70.3307 97.3906 70.9401 96.7812 71.6172C93.3958 75.4596 90.679 79.7168 88.6309 84.3887C86.5827 89.0436 85.5586 94.1217 85.5586 99.623V102.01C85.5586 102.771 85.1777 103.152 84.416 103.152H82.1055C81.3438 103.152 80.9629 102.771 80.9629 102.01V100.512C80.9629 94.401 82.1224 89.0267 84.4414 84.3887C86.7604 79.7337 89.6465 75.2904 93.0996 71.0586V71.0078C92.5918 71.0417 92.084 71.0586 91.5762 71.0586H75.377Z" fill="black"/>
<path d="M73.7676 144.012C73.0059 144.012 72.625 143.631 72.625 142.869V140.635C72.625 140.093 72.8281 139.509 73.2344 138.883L87.1738 117.352C87.5632 116.742 88.0371 116.438 88.5957 116.438H90.9062C91.6849 116.438 92.0742 116.818 92.0742 117.58V139.848H96.416C97.1777 139.848 97.5586 140.229 97.5586 140.99V142.869C97.5586 143.631 97.1862 144.012 96.4414 144.012H92.0742V151.857C92.0742 152.619 91.6934 153 90.9316 153H88.748C87.9863 153 87.6055 152.619 87.6055 151.857V144.012H73.7676ZM77.1699 139.848H87.6055V125.248C87.6055 124.74 87.6224 124.232 87.6562 123.725H87.6055L77.1699 139.848Z" fill="black"/>
</g>
</svg>
