<svg width="180" height="180" viewBox="0 0 180 180" fill="none" xmlns="http://www.w3.org/2000/svg">
<path fill-rule="evenodd" clip-rule="evenodd" d="M55.4753 85.0787V77.5352H124.529V85.0787L102.256 97.4842C98.5306 99.5595 96.6826 101.715 95.8491 104.396C95.0409 106.998 95.2261 109.97 95.5544 113.809C95.8743 117.686 96.6278 122.131 97.4613 127.103C98.56 133.661 99.8145 141.141 100.442 149.464L100.467 150.129C100.475 152.667 99.3556 154.982 97.6003 156.704C95.8238 158.451 93.3949 159.604 90.7934 159.802L89.9936 159.836L89.1938 159.802C86.5923 159.609 84.1634 158.455 82.3869 156.704C80.6316 154.982 79.5202 152.667 79.5202 150.129L79.5371 149.464C80.1685 141.141 81.4272 133.661 82.5259 127.103C83.3594 122.135 84.1045 117.69 84.4328 113.809C84.7611 109.965 84.9464 106.994 84.1381 104.396C83.2962 101.715 81.4567 99.5595 77.7312 97.4842L55.4585 85.0787H55.4753Z" fill="white"/>
<path fill-rule="evenodd" clip-rule="evenodd" d="M55.4727 73.1962V20.1602H65.083L70.2987 33.7991L75.7753 20.1602H105.73L108.534 26.3103L111.881 20.1602H124.526V73.1962H55.4727Z" fill="white"/>
<path d="M180 0V180H0V0H180ZM5.47241 174.528H174.528V5.47241H5.47241V174.528Z" fill="white"/>
</svg>
