<svg width="30" height="32" viewBox="0 0 30 32" fill="none" xmlns="http://www.w3.org/2000/svg">
<path d="M29.349 21.6614C29.2032 21.7695 28.9392 21.7985 28.8174 21.7985C27.4665 21.7985 24.6232 18.924 22.3673 16.7211C24.6848 15.2853 28.1967 13.7045 28.4534 10.5907C28.4737 10.4102 28.4853 10.2275 28.4853 10.0418C28.4853 7.37041 26.3193 5.20443 23.6479 5.20443C22.0446 5.20443 20.624 5.9854 19.7437 7.18623C19.2158 7.86496 18.8714 8.73439 18.817 9.79092C18.817 9.79092 18.817 9.79237 18.817 9.7931C18.8119 9.89534 18.809 9.99831 18.809 10.1042C18.809 10.1644 18.8119 10.2224 18.8162 10.2797C18.9352 12.7277 20.8742 14.6965 23.3085 14.8654C23.3201 15.5405 22.1026 16.2004 21.8473 16.2062C19.5769 13.9169 17.4015 11.231 15.5734 8.55819C18.0737 7.76996 19.9779 6.19714 19.9141 4.02391C19.4152 -3.11942 0.52814 -0.662656 6.05228 10.6821C2.59335 11.975 -0.352916 14.5362 0.03431 18.4128C0.114801 20.156 1.0118 22.1074 2.40118 23.1356C5.87969 25.8513 11.4154 24.6961 14.5285 22.1937C16.6336 23.9188 18.9091 25.4017 21.302 25.5583C24.2135 25.749 28.1844 23.9528 29.4186 21.6672C29.3997 21.6484 29.3693 21.6455 29.3475 21.6614H29.349ZM20.1483 10.0418C20.1483 8.10933 21.7154 6.54231 23.6479 6.54231C25.5804 6.54231 27.1474 8.10933 27.1474 10.0418C27.1474 11.9743 25.5804 13.5413 23.6479 13.5413C21.7154 13.5413 20.1483 11.9743 20.1483 10.0418ZM0.861701 19.1111C0.812391 18.8493 0.772508 18.5803 0.752204 18.2975C0.715946 17.7812 0.736257 17.2946 0.804421 16.8356C0.807321 16.8153 0.818919 16.7965 0.835597 16.7849L7.0276 12.4261C7.38944 13.0388 7.62874 13.4173 8.05585 14.0772L0.888531 19.122C0.878379 19.1292 0.863876 19.1234 0.861701 19.1111ZM2.80871 22.5077C2.7594 22.4757 2.51793 22.309 2.09082 21.8014C1.73188 21.375 1.5941 21.0994 1.56582 21.0378C1.5622 21.0305 1.56509 21.0211 1.57162 21.0168L9.11456 15.7146C9.48583 16.257 9.91149 16.7356 10.2973 17.2569L2.82684 22.5084C2.82104 22.5127 2.81378 22.5127 2.80798 22.5084L2.80871 22.5077ZM7.49531 23.971C7.48443 23.979 7.47139 23.9833 7.45761 23.9848C7.40177 23.9891 7.34376 23.9927 7.28503 23.9927C6.39237 23.9927 5.52873 23.8492 4.73469 23.5729C4.72164 23.5685 4.71874 23.5504 4.73034 23.5417L11.4662 18.8007C11.7932 19.1771 12.2834 19.8138 12.6982 20.3083L7.49531 23.971ZM15.0876 7.82943C13.8309 5.89839 12.8512 4.01955 12.443 2.38872C12.1761 1.32132 12.1094 0.654194 12.6097 0.587481C13.8193 0.441729 15.1318 5.79542 15.1898 7.79752C15.1913 7.85335 15.118 7.87583 15.0876 7.8287V7.82943Z" fill="white"/>
<path d="M2.02979 30.2264V28.5202C2.02979 27.9807 2.30461 27.7109 2.85355 27.7109H4.16243L4.49093 27.9618V28.3375H2.88255C2.78466 28.3375 2.73535 28.386 2.73535 28.4825V30.2656C2.73535 30.362 2.78466 30.4106 2.88255 30.4106H4.49093V30.7862L4.16243 31.0371H2.85355C2.30461 31.0371 2.02979 30.7674 2.02979 30.2279V30.2264Z" fill="white"/>
<path d="M6.19247 31.0357C5.66311 31.0357 5.39844 30.7805 5.39844 30.2692C5.39844 29.758 5.66311 29.5028 6.19247 29.5028H6.86902V29.2236C6.86902 29.1206 6.81682 29.0691 6.7124 29.0691H5.67326V28.708L5.96767 28.4912H6.75227C7.28163 28.4912 7.54631 28.7515 7.54631 29.2715V31.035H6.19319L6.19247 31.0357ZM6.07427 30.3033C6.07427 30.4063 6.12648 30.4578 6.2309 30.4578H6.8683V30.014H6.2309C6.12648 30.014 6.07427 30.0655 6.07427 30.1685V30.3033Z" fill="white"/>
<path d="M8.67773 31.0357V28.4912H11.6291C12.1584 28.4912 12.4231 28.7515 12.4231 29.2715V31.035H11.7465V29.2229C11.7465 29.1199 11.6943 29.0684 11.5899 29.0684H10.8887V31.0343H10.2121V29.0684H9.35429V31.0343H8.67773V31.0357Z" fill="white"/>
<path d="M13.5562 31.9994V28.4912H14.9876C15.5169 28.4912 15.7816 28.7515 15.7816 29.2715V30.2547C15.7816 30.7754 15.5169 31.0357 14.9876 31.0357H14.2327V31.9994H13.5562ZM14.2327 30.4578H14.9484C15.0528 30.4578 15.1051 30.4063 15.1051 30.3033V29.2236C15.1051 29.1206 15.0528 29.0691 14.9484 29.0691H14.2327V30.4571V30.4578Z" fill="white"/>
<path d="M17.5514 31.0357C17.022 31.0357 16.7573 30.7805 16.7573 30.2692C16.7573 29.758 17.022 29.5028 17.5514 29.5028H18.2279V29.2236C18.2279 29.1206 18.1757 29.0691 18.0713 29.0691H17.0321V28.708L17.3266 28.4912H18.1112C18.6405 28.4912 18.9052 28.7515 18.9052 29.2715V31.035H17.5521L17.5514 31.0357ZM17.4339 30.3033C17.4339 30.4063 17.4861 30.4578 17.5905 30.4578H18.2279V30.014H17.5905C17.4861 30.014 17.4339 30.0655 17.4339 30.1685V30.3033Z" fill="white"/>
<path d="M20.0229 28.0723V27.4219H20.7292V28.0723H20.0229ZM20.0375 31.036V28.4915H20.714V31.036H20.0375Z" fill="white"/>
<path d="M21.8076 30.2557V29.2724C21.8076 28.7518 22.0723 28.4922 22.6017 28.4922H24.0331V31.2194C24.0331 31.7401 23.7684 31.9997 23.239 31.9997H22.3225L22.0281 31.7829V31.421H23.1999C23.3043 31.421 23.3565 31.3695 23.3565 31.2666V31.0352H22.6017C22.0723 31.0352 21.8076 30.7749 21.8076 30.2543V30.2557ZM22.4842 30.3036C22.4842 30.4065 22.5364 30.458 22.6408 30.458H23.3565V29.0701H22.6408C22.5364 29.0701 22.4842 29.1216 22.4842 29.2246V30.3043V30.3036Z" fill="white"/>
<path d="M25.1655 31.0357V28.4912H26.597C27.1263 28.4912 27.391 28.7515 27.391 29.2715V31.035H26.7144V29.2229C26.7144 29.1199 26.6622 29.0684 26.5578 29.0684H25.8421V31.0343H25.1655V31.0357Z" fill="white"/>
</svg>
