<svg width="32" height="41" viewBox="0 0 32 41" fill="none" xmlns="http://www.w3.org/2000/svg">
<path d="M23.6592 31.6084C23.6592 30.5439 23.9399 29.6797 24.5015 29.0156C25.0679 28.3516 25.9028 28.0195 27.0063 28.0195C28.1587 28.0195 29.0205 28.4785 29.5918 29.3965C30.168 30.3096 30.4561 31.562 30.4561 33.1538C30.4561 35.3022 30.0825 36.7939 29.3354 37.6289C28.5884 38.459 27.6802 38.874 26.6108 38.874C26.0005 38.874 25.5122 38.7959 25.146 38.6396C24.7798 38.4834 24.4648 38.2832 24.2012 38.0391C23.9961 37.8486 23.9497 37.6899 24.062 37.563L24.4062 37.1602C24.543 37.0039 24.7212 37.0186 24.9409 37.2041C25.1216 37.3604 25.3389 37.4946 25.5928 37.6069C25.8467 37.7192 26.208 37.7754 26.6768 37.7754C27.3359 37.7754 27.9097 37.4458 28.3979 36.7866C28.8862 36.1274 29.1304 35.0923 29.1304 33.6812H29.1157C28.896 33.9985 28.5786 34.2695 28.1636 34.4941C27.7534 34.7139 27.2334 34.8237 26.6035 34.8237C25.8223 34.8237 25.1362 34.5576 24.5454 34.0254C23.9546 33.4883 23.6592 32.6826 23.6592 31.6084ZM25.0947 31.5645C25.0947 32.2725 25.2607 32.8071 25.5928 33.1685C25.9248 33.5249 26.3398 33.7031 26.8379 33.7031C27.4824 33.7031 27.9829 33.5054 28.3394 33.1099C28.7007 32.7144 28.8813 32.1821 28.8813 31.5132C28.8813 30.9077 28.7129 30.3584 28.376 29.8652C28.0439 29.3672 27.5825 29.1182 26.9917 29.1182C26.3813 29.1182 25.9126 29.3477 25.5854 29.8066C25.2583 30.2656 25.0947 30.8516 25.0947 31.5645Z" fill="black"/>
<path d="M12.7983 24.2344C12.5786 24.2344 12.4688 24.1245 12.4688 23.9048V23.2603C12.4688 23.104 12.5273 22.9355 12.6445 22.7549L16.6655 16.5439C16.7778 16.3682 16.9146 16.2803 17.0757 16.2803H17.7422C17.9668 16.2803 18.0791 16.3901 18.0791 16.6099V23.0332H19.3315C19.5513 23.0332 19.6611 23.1431 19.6611 23.3628V23.9048C19.6611 24.1245 19.5537 24.2344 19.3389 24.2344H18.0791V26.4976C18.0791 26.7173 17.9692 26.8271 17.7495 26.8271H17.1196C16.8999 26.8271 16.79 26.7173 16.79 26.4976V24.2344H12.7983ZM13.7798 23.0332H16.79V18.8218C16.79 18.6753 16.7949 18.5288 16.8047 18.3823H16.79L13.7798 23.0332Z" fill="black"/>
<path d="M13.0986 15C12.8301 15 12.6958 14.8901 12.6958 14.6704V14.3188C12.6958 14.1284 12.7764 13.9526 12.9375 13.7915L15.8086 10.8984C16.6582 10.0439 17.2148 9.38477 17.4785 8.9209C17.7471 8.45215 17.8813 7.9126 17.8813 7.30225C17.8813 6.78955 17.73 6.35498 17.4272 5.99854C17.1294 5.64209 16.6753 5.46387 16.0649 5.46387C15.5181 5.46387 15.064 5.60303 14.7026 5.88135C14.3413 6.15967 14.0801 6.62598 13.9189 7.28027C13.8506 7.55859 13.7065 7.66602 13.4868 7.60254L12.9155 7.43408C12.7642 7.39014 12.7275 7.18262 12.8057 6.81152C12.9473 6.17188 13.2891 5.60547 13.8311 5.1123C14.3779 4.61426 15.103 4.36523 16.0063 4.36523C17.1538 4.36523 17.9912 4.65332 18.5186 5.22949C19.0508 5.80566 19.3169 6.51123 19.3169 7.34619C19.3169 8.16162 19.0972 8.86475 18.6577 9.45557C18.2231 10.0464 17.625 10.7104 16.8633 11.4478L14.4536 13.7842V13.8135C14.5854 13.8037 14.7808 13.7988 15.0396 13.7988H19.0312C19.2998 13.7988 19.4341 13.9087 19.4341 14.1284V14.6704C19.4341 14.8901 19.2998 15 19.0312 15H13.0986Z" fill="black"/>
<path d="M1.27441 6.56982C1.21094 6.41357 1.26953 6.30127 1.4502 6.23291C1.82617 6.09131 2.18262 5.86426 2.51953 5.55176C2.85645 5.23926 3.12256 4.96094 3.31787 4.7168C3.45947 4.54102 3.59619 4.45312 3.72803 4.45312H4.35059C4.5752 4.45312 4.6875 4.56299 4.6875 4.78271V14.6704C4.6875 14.8901 4.57764 15 4.35791 15H3.72803C3.5083 15 3.39844 14.8901 3.39844 14.6704V6.64307C3.39844 6.49658 3.40332 6.3501 3.41309 6.20361H3.39844C3.24707 6.39404 3.0249 6.58936 2.73193 6.78955C2.43896 6.98975 2.17041 7.13623 1.92627 7.229C1.71143 7.31201 1.56982 7.27295 1.50146 7.11182L1.27441 6.56982Z" fill="black"/>
</svg>
